# xmcd CD database file
#
# Track frame offsets:
#	182
#	55435
#	82232
#	100275
#	128962
#	160257
#	191632
#	219865
#	238245
#
# Disc length: 3424 seconds
#
# Revision: 0
# Processed by: cddbd v1.5.1PL2 Copyright (c) Steve Scherf et al.
# Submitted via: CDex 1.51
#
DISCID=820d5e09
DTITLE=Thierry Morati - Oceane
DYEAR=1900
DGENRE=New Age
TTITLE0=Oceane
TTITLE1=La pierre engloutie
TTITLE2=Ciel ouvert
TTITLE3=Chant des sirenes
TTITLE4=Les longs corridords
TTITLE5=L'ocean blanc
TTITLE6=Templum Naturae
TTITLE7=Degel
TTITLE8=Eclaircie
EXTD=
EXTT0=
EXTT1=
EXTT2=
EXTT3=
EXTT4=
EXTT5=
EXTT6=
EXTT7=
EXTT8=
PLAYORDER=
